<?xml version="1.0" encoding="utf-8"?>
<!-- Generator: Adobe Illustrator 19.2.1, SVG Export Plug-In . SVG Version: 6.00 Build 0)  -->
<svg version="1.1" id="layer" xmlns="http://www.w3.org/2000/svg" xmlns:xlink="http://www.w3.org/1999/xlink" x="0px" y="0px"
	 viewBox="0 0 652 652" style="enable-background:new 0 0 652 652;" xml:space="preserve">
<style type="text/css">
	.st0{fill:#231815;}
</style>
<path class="st0" d="M599.9,182.6v1.8h3.2v9h2.2v-9h3.2v-1.8H599.9z M617,182.6l-1.9,7.4l-2-7.4h-3.3v10.8h2v-8.5l2.1,8.5h2.1
	l2.1-8.5v8.5h2v-10.8H617z"/>
<polygon class="st0" points="607.8,269.9 620.3,257.6 620.3,220.1 582.8,182.6 457.8,182.6 420.3,220.1 420.3,195.1 407.8,182.6 
	357.8,182.6 345.3,195.1 345.3,220.1 320.3,245.1 295.3,220.1 295.3,195.1 282.8,182.6 232.8,182.6 220.3,195.1 207.8,182.6 
	157.8,182.6 145.3,195.1 145.3,245.1 82.8,182.6 32.8,182.6 20.3,195.1 20.3,370.1 32.8,382.6 82.8,382.6 95.3,370.1 95.3,320.1 
	157.8,382.6 207.8,382.6 220.3,370.1 220.3,270.1 282.8,332.6 282.8,370.1 295.3,382.6 345.3,382.6 357.8,370.1 357.8,332.6 
	420.3,270.1 420.3,345.1 457.8,382.6 582.8,382.6 620.3,345.1 620.3,307.6 607.8,295.1 545.3,295.1 545.3,307.6 495.3,307.6 
	495.3,257.6 545.3,257.6 545.3,269.9 "/>
<polygon class="st0" points="62.8,419.7 48,419.7 48,458.2 35.1,458.2 35.1,419.7 20.3,419.7 20.3,408.6 62.8,408.6 "/>
<path class="st0" d="M65.3,408.6h11.8v18.5h0.1c1.8-3.7,6.7-6,11-6c12,0,13,8.7,13,13.9v23.1H89.4v-17.5c0-4.9,0.6-9.9-5.9-9.9
	c-4.4,0-6.4,3.8-6.4,7.7v19.7H65.3V408.6z"/>
<path class="st0" d="M116.7,443.1c0.2,4.9,3.1,8.2,8.1,8.2c2.8,0,5.6-1.3,6.7-3.9h11.1c-2.2,8.3-9.9,11.9-17.9,11.9
	c-11.7,0-19.7-7.1-19.7-19.2c0-11,8.8-18.9,19.4-18.9c12.9,0,19.4,9.7,18.8,21.9H116.7z M131.4,436.5c-0.2-4-3.1-7.4-7-7.4
	c-4.2,0-6.9,3-7.6,7.4H131.4z"/>
<path class="st0" d="M190.6,407.6c15.6,0,24.5,11.5,24.5,25.8c0,14.4-8.8,25.8-24.5,25.8c-15.6,0-24.4-11.4-24.4-25.8
	C166.1,419,174.9,407.6,190.6,407.6 M190.6,448.1c8.3,0,11.5-7.3,11.5-14.7s-3.2-14.7-11.5-14.7c-8.3,0-11.5,7.4-11.5,14.7
	S182.2,448.1,190.6,448.1"/>
<path class="st0" d="M222.3,429.8h-5.7v-7.7h5.7c0-10.3,3.6-13.5,13.7-13.5c1.9,0,3.8,0.1,5.7,0.2v8.3c-1.1-0.1-2.1-0.2-3.2-0.2
	c-2.7,0-4.4,0.3-4.4,3.6v1.6h7.1v7.7h-7.1v28.4h-11.8V429.8z"/>
<path class="st0" d="M247.4,429.8h-5.7v-7.7h5.7c0-10.3,3.6-13.5,13.7-13.5c1.9,0,3.8,0.1,5.7,0.2v8.3c-1.1-0.1-2.2-0.2-3.2-0.2
	c-2.7,0-4.4,0.3-4.4,3.6v1.6h7.1v7.7h-7.1v28.4h-11.8V429.8z M281.5,417.6h-11.8v-9h11.8V417.6z M269.7,422.2h11.8v36.1h-11.8V422.2
	z"/>
<path class="st0" d="M311,435.3c-0.1-3.1-2.8-5.2-5.8-5.2c-6.6,0-7.6,5.6-7.6,10.6c0,4.6,2,9.5,7,9.5c4.1,0,6.2-2.4,6.7-6.2h11.5
	c-1,9.7-8.5,15.2-18.1,15.2c-10.8,0-18.9-7.4-18.9-18.5c0-11.5,7.3-19.6,18.9-19.6c9,0,17,4.7,17.8,14.2H311z"/>
<path class="st0" d="M338.5,417.6h-11.8v-9h11.8V417.6z M326.7,422.2h11.8v36.1h-11.8V422.2z"/>
<path class="st0" d="M344,433.3c0.2-4.7,2.4-7.8,5.6-9.6c3.2-1.8,7.4-2.5,11.5-2.5c8.5,0,16.8,1.8,16.8,12.1V449c0,3,0,6.4,1.4,9.2
	h-11.9c-0.4-1.1-0.6-2.2-0.7-3.4c-3.1,3.2-7.6,4.5-11.9,4.5c-6.9,0-12.3-3.5-12.3-10.9c0-11.7,12.8-10.8,21-12.5
	c2-0.4,3.1-1.1,3.1-3.3c0-2.7-3.3-3.8-5.7-3.8c-3.3,0-5.4,1.5-5.9,4.5H344z M359.3,451.9c5.6,0,7.5-3.2,7.2-10.6
	c-1.7,1-4.7,1.2-7.3,1.9c-2.6,0.6-4.8,1.7-4.8,4.6C354.4,450.8,356.6,451.9,359.3,451.9"/>
<rect x="383.7" y="408.6" class="st0" width="11.8" height="49.6"/>
<path class="st0" d="M468.5,458.2h-8.3l-0.8-5.4c-3.4,4.8-9.3,6.5-13.8,6.5c-15,0-24.7-11.5-24.7-25.8c0-14.4,9.7-25.8,24.7-25.8
	c10.3,0,21.2,5.5,22.4,17.9h-12.9c-0.4-4.2-4.6-6.8-9.8-6.8c-8.3,0-11.5,7.4-11.5,14.7c0,7.4,3.2,14.7,11.5,14.7
	c6.4,0,10.7-3,11.4-7.5h-9v-9.6h20.8V458.2z"/>
<path class="st0" d="M510.3,458.2h-11.5v-4.9h-0.1c-2.2,3.7-6.8,6-11,6c-10.4,0-13.4-6-13.4-15.4v-21.7h11.8v20.9
	c0,4.8,2.1,6.5,5.8,6.5c2.6,0,6.5-1.7,6.5-8v-19.3h11.8V458.2z"/>
<path class="st0" d="M528.1,417.6h-11.8v-9h11.8V417.6z M516.3,422.2h11.8v36.1h-11.8V422.2z"/>
<path class="st0" d="M569.8,458.2h-11.3V454h-0.1c-2.3,3.4-5.8,5.2-9.9,5.2c-11.3,0-16.1-9.7-16.1-19.9c0-9.4,5-18.3,15.2-18.3
	c4.4,0,7.8,1.6,10.3,4.9h0.1v-17.4h11.8V458.2z M544.1,439.8c0,4.9,1.8,10.4,7.2,10.4c5.8,0,7-5.5,7-10.1c0-5.2-1.9-10-7-10
	C545.9,430.1,544.1,435.2,544.1,439.8"/>
<path class="st0" d="M585.5,443.1c0.2,4.9,3.1,8.2,8.1,8.2c2.8,0,5.6-1.3,6.7-3.9h11c-2.1,8.3-9.9,11.9-17.9,11.9
	c-11.7,0-19.7-7.1-19.7-19.2c0-11,8.8-18.9,19.4-18.9c12.9,0,19.4,9.7,18.8,21.9H585.5z M600.2,436.5c-0.2-4-3.1-7.4-7-7.4
	c-4.2,0-7,3-7.6,7.4H600.2z"/>
</svg>
