<?xml version="1.0" encoding="utf-8"?>
<!-- Generator: Adobe Illustrator 19.2.1, SVG Export Plug-In . SVG Version: 6.00 Build 0)  -->
<svg version="1.1" id="layer" xmlns="http://www.w3.org/2000/svg" xmlns:xlink="http://www.w3.org/1999/xlink" x="0px" y="0px"
	 viewBox="0 0 652 652" style="enable-background:new 0 0 652 652;" xml:space="preserve">
<style type="text/css">
	.st0{fill:#406779;}
</style>
<g transform="translate(0.000000,1024.000000) scale(0.100000,-0.100000)">
	<path class="st0" d="M700,7030V4530h2500h2500v2500v2500H3200H700V7030z M3021.8,8341.5c13.7-14.2,19.5-32.2,15.1-49.8
		c-13.7-54.2-90.8-43.5-90.8,12.7C2946.1,8345.9,2993.9,8369.4,3021.8,8341.5z M2114.1,8194.6c30.8-9.3,61.5-35.2,73.2-62
		c7.3-18.1,9.3-40.5,11.2-151.9l2.9-130.4h-39.6c-43.5,0-45.9,1.5-45.9,35.6v13.7l-14.6-17.1c-22.5-25.4-51.8-37.6-89.8-37.6
		c-73.2,0-119.1,51.3-105,117.7c11.2,52.7,55.7,78.6,153.8,88.9l56.6,5.9l-2.4,21c-2.9,28.8-14.6,43.9-37.6,50.8
		c-26.4,7.8-65.9-1-97.2-22.5l-24.4-16.1l-11.2,13.2c-32.2,35.6-31.3,33.7-19,46.4c14.2,15.1,62,40.5,86.4,46.4
		C2041.3,8203.3,2087.7,8202.4,2114.1,8194.6z M2442.2,8194.1c23.9-7.8,69.3-38.1,72.8-48.8c1-2.9-10.3-14.6-25.4-26.4l-26.9-20.5
		l-17.1,14.6c-39.6,34.7-115.7,23.9-115.7-16.6c0-18.1,7.8-22.9,63.5-38.6c103-28.8,127.9-49.8,127.9-107.4
		c0-31.3-6.8-47.4-30.3-68.8c-21.5-21-41.5-30.3-73.7-35.2c-56.2-8.8-115.2,8.8-149.9,45.4l-17.1,18.1l19.5,16.1
		c34.2,29.3,37.1,29.8,57.6,10.3c37.1-34.7,102.5-34.7,115.7,0c9.8,24.9-2.4,33.2-90.3,60.5c-26.9,8.3-55.7,20.5-64,26.9
		c-40,30.3-42.5,97.2-4.9,138.2c10.7,12.2,40,28.8,61.5,35.6C2367,8203.8,2416.8,8202.4,2442.2,8194.1z M3190.2,8174.5v-27.8
		l10.3,13.2c25.9,33.2,85,49.8,131.3,37.1c27.8-7.3,60.5-39.1,67.9-65.9c3.4-12.2,5.4-69.3,5.4-149.9v-130.9h-41.5h-41.5v114.7
		c0,122.1-2.4,136.7-23.9,155.8c-7.3,6.3-18.1,9.8-34.2,9.8c-29.8,0.5-47.4-11.2-62.5-41c-10.7-20.5-11.2-27.3-11.2-130.4v-108.9
		h-41.5h-41.5v168.5v168l18.6,3.4c9.8,1.5,25.9,4.9,35.2,6.8C3190.7,8203.8,3190.2,8203.8,3190.2,8174.5z M3712.7,8186.3
		c29.8-13.2,63.5-40,63.5-50.3c0-5.9-44.4-41.5-51.8-41.5c-2,0-10.7,6.3-19.5,14.6c-20,17.1-50.8,26.4-79.1,22.9
		c-48.3-5.4-84-51.3-84-107.9c0-30.3,11.7-64.5,28.3-82.5c23.9-26.4,77.6-36.1,111.8-19.5c18.1,8.3,37.6,34.2,43,56.6l3.4,13.2
		h-51.8h-51.8v31.7v31.7h90.8h90.8l-2-44.9c-2.4-53.7-12.7-80.1-43-113.3c-11.2-12.2-33.2-28.3-48.3-35.6
		c-24.4-12.2-32.7-13.7-78.6-13.7c-42,0-55.2,2-73.7,10.3c-89.4,41.5-127.4,150.9-84,241.7c22.5,46.4,53.7,75.2,99.6,92.8
		C3614.1,8206.3,3675.6,8203.8,3712.7,8186.3z M4392.4,8183.3c37.6-18.6,63.5-44.9,81.5-83.5c10.7-23.9,12.7-33.7,12.7-76.2
		s-2-52.2-12.7-76.2c-17.6-37.1-42-63.5-78.6-83c-26.9-14.2-36.1-16.6-74.7-18.1c-36.1-1.5-48.8,0-70.8,8.3
		c-75.2,28.3-115.2,87.9-114.3,171.4c0,34.2,2.4,46.4,12.7,69.3c34.7,74.7,87.9,107.9,169.9,105.5
		C4353.8,8199.4,4364.6,8197,4392.4,8183.3z M4620.9,8174.5v-27.8l10.3,13.2c25.9,33.2,85,49.8,131.3,37.1
		c27.8-7.3,60.5-39.1,67.9-65.9c3.4-12.2,5.4-69.3,5.4-149.9v-130.9h-41.5h-41.5v114.7c0,122.1-2.4,136.7-23.9,155.8
		c-7.3,6.3-18.1,9.8-34.2,9.8c-29.8,0.5-47.4-11.2-62.5-41c-10.7-20.5-11.2-27.3-11.2-130.4v-108.9h-41.5h-41.5v168.5v168l18.6,3.4
		c9.8,1.5,25.9,4.9,35.2,6.8C4621.4,8203.8,4620.9,8203.8,4620.9,8174.5z M1514.9,8093.5c12.2-57.1,22.9-107.9,24.4-112.8
		c2-4.9,16.1,35.6,35.2,102.5l32.2,111.3h38.6h38.1l31.7-109.4c17.6-60.1,32.7-106,34.2-102.5c1.5,3.9,12.7,53.2,24.9,109.4
		l22.5,102.5l39.6,1.5l39.1,1.5l-25.9-106.4c-14.2-58.6-33.2-136.7-42-173.3l-16.1-67.4h-42h-41.5l-31.3,99.1
		c-17.1,54.2-32.2,101.6-34.2,105c-1.5,3.4-18.1-41-36.6-99.1l-33.7-105h-41.5h-42l-38.6,167.5c-21.5,91.8-39.6,169.9-41,173.3
		c-1.5,4.4,8.8,5.9,41.5,5.9h43.5L1514.9,8093.5z M2662.9,8126.2v-70.8h65.9h65.9v70.8v70.8h39.1h39.1v-173.3v-173.3h-39.1h-39.1
		v70.8v70.8h-65.9h-65.9v-70.8v-70.8h-39.1h-39.1v173.3V8197h39.1h39.1V8126.2z M3034,8023.7v-173.3h-41.5H2951v173.3V8197h41.5
		h41.5V8023.7z M4112.1,8164.3l-1.5-33.2l-49.8-1.5l-50.3-1.5v-138.7v-139.2h-39.1h-39.1v139.2v138.7l-49.8,1.5l-50.3,1.5l-1.5,33.2
		l-1.5,32.7h142.1h142.1L4112.1,8164.3z M4235.2,7652.6c144-21.5,266.6-68.4,380.9-146c58.1-39.1,168-144.5,209-200.7
		c23.9-32.2,24.4-34.7,16.6-42.5c-4.4-4.4-90.3-73.2-190.9-152.8L4467.6,6966l-24.4,28.3c-82,95.7-167.5,152.8-269.5,180.2
		c-47.9,12.7-161.6,12.7-209.5,0c-253.9-67.4-393.1-351.6-317.9-648.9c22.5-87.4,65.9-165,127-225.6
		c59.6-59.6,128.4-96.7,207.5-112.8c50.8-10.3,157.2-7.3,205.6,5.4c91.8,24.4,176.8,81.1,255.4,170.4c19,22,36.1,40,38.1,41
		c5.9,2.4,380.4-272.9,380.4-279.3c0-9.8-81.5-109.4-128.4-156.3c-187.5-188.5-420.9-274.9-715.8-265.1
		c-147.5,4.9-257.3,31.7-388.7,96.2C3409.5,5906,3241,6094.9,3159,6326.9c-13.2,35.6-17.6,43.9-20.5,36.6
		c-62.5-169.4-141.1-285.6-261.2-385.7c-137.7-115.2-304.7-187.5-514.6-223.1c-61.5-10.3-77.1-10.7-491.7-12.2l-428.7-2v942.9v942.9
		l426.3-2c358.9-1.5,433.6-2.9,477.1-9.8c275.9-42,485.8-146,628.9-311c66.4-76.2,124.5-175.3,155.3-262.2
		c7.8-22.5,15.1-40.5,16.6-40.5s8.8,17.6,16.1,39.6c45.4,127.9,132.8,262.2,233.9,358.9c160.6,153.3,367.2,244.1,597.2,262.7
		C4040.3,7665.7,4184.4,7659.9,4235.2,7652.6z M4855.3,5819.1c0-7.8-3.4-9.8-17.1-9.8h-17.1v-46.4c0-46.4,0-46.4-12.2-46.4
		s-12.2,0-12.2,46.4v46.4h-17.1c-13.7,0-17.1,2-17.1,9.8c0,9.3,3.4,9.8,46.4,9.8S4855.3,5828.3,4855.3,5819.1z M4918.3,5809.3
		c5.9-10.7,12.7-20.5,15.1-22c2-1.5,9.8,7.3,16.6,19.5c10.7,18.1,15.6,22,27.3,22h14.6v-58.6v-58.6h-12.2
		c-11.2,0-11.7,1.5-13.2,37.6l-1.5,37.6l-15.1-23.4l-15.1-23.4l-14.2,22.5l-14.2,22.5l-2.4-35.2c-2.4-32.2-3.4-35.6-13.2-37.1
		c-11.2-1.5-11.2-1-11.2,57.1v59.1h13.7C4904.6,5828.8,4909.5,5824.9,4918.3,5809.3z"/>
	<path class="st0" d="M2027.1,7989c-40-12.2-54.7-44.4-30.8-67.9c9.8-9.8,16.6-12.2,38.1-12.2c42,0,73.2,26.4,79.6,67.4l3.4,20.5
		l-33.7-0.5C2065.2,7996.3,2039.8,7992.9,2027.1,7989z"/>
	<path class="st0" d="M4274.2,8125.7c-34.2-14.6-53.2-44.9-57.1-89.8c-6.3-66.4,37.6-122.1,94.7-122.1c39.1,0.5,75.2,27.8,88.9,67.9
		c8.3,25.4,6.3,73.2-3.9,95.7C4375.3,8124.2,4320.6,8145.7,4274.2,8125.7z"/>
	<path class="st0" d="M1950,6683.3v-478.5h138.2c150.4,0,195.8,4.9,268.1,27.3c163.6,51.8,266.1,168.5,299.3,340.8
		c10.3,52.7,10.3,168,0,221.2c-38.6,199.7-179.2,328.1-394,359.9c-36.6,5.9-88.9,7.8-181.6,7.8H1950V6683.3z"/>
	<path class="st0" d="M3132.1,6850.8c-5.9-21-17.6-59.6-25.4-85.4l-15.1-47.9h-87.4c-47.9,0-87.4-1.5-87.4-3.4
		c0-2.4,31.3-25.9,68.8-52.7s69.3-50.3,70.8-51.8c1-2-9.8-42-24.4-89.4c-14.2-47.4-25.4-85.9-24.4-85.9c1.5,0,65.9,48.8,137.2,103.5
		c3.9,2.9,28.3-12.2,76.2-46.9c39.1-28.3,71.8-51.8,73.2-51.8s-10.3,38.6-25.9,85.4l-28.3,85.4l29.8,23.4
		c16.6,13.2,48.3,37.6,70.8,54.2c22,17.1,40,32.2,40,33.7c0,1-40,1.5-88.9,0.5l-88.9-2l-26.9,84.5c-14.6,45.9-27.8,84-29.8,84
		C3144.8,6888.4,3138.5,6871.3,3132.1,6850.8z"/>
</g>
</svg>
